<?xml version="1.0" standalone="no"?>
<!DOCTYPE svg PUBLIC "-//W3C//DTD SVG 20010904//EN"
 "http://www.w3.org/TR/2001/REC-SVG-20010904/DTD/svg10.dtd">
<svg version="1.0" xmlns="http://www.w3.org/2000/svg"
 width="1280.000000pt" height="1280.000000pt" viewBox="0 0 1280.000000 1280.000000"
 preserveAspectRatio="xMidYMid meet">
<metadata>
Created by potrace 1.14, written by Peter Selinger 2001-2017
</metadata>
<g transform="translate(0.000000,1280.000000) scale(0.100000,-0.100000)"
fill="#000000" stroke="none">
<path d="M5440 11089 c-36 -4 -84 -10 -107 -13 -24 -3 -62 -9 -85 -12 -47 -6
-240 -47 -303 -64 -54 -15 -243 -79 -280 -95 -177 -77 -236 -105 -335 -157
-106 -56 -320 -180 -480 -280 -133 -82 -252 -138 -353 -164 -81 -21 -85 -22
-159 -29 -35 -3 -83 -8 -108 -10 -25 -2 -90 -7 -145 -10 -55 -3 -134 -8 -175
-10 -41 -3 -118 -7 -170 -10 -104 -6 -171 -13 -285 -31 -87 -14 -296 -75 -320
-94 -5 -4 -21 -11 -35 -15 -30 -9 -149 -62 -170 -75 -8 -5 -28 -16 -45 -25
-36 -17 -49 -26 -135 -84 -111 -76 -248 -201 -395 -361 -74 -81 -337 -394
-401 -476 -21 -28 -77 -100 -124 -161 -339 -438 -495 -734 -575 -1090 -13 -60
-26 -126 -30 -148 -3 -22 -7 -47 -10 -55 -2 -8 -7 -35 -9 -60 -3 -25 -8 -58
-10 -75 -2 -16 -7 -59 -11 -95 -4 -36 -8 -76 -10 -90 -2 -14 -6 -60 -10 -102
-3 -42 -7 -85 -9 -95 -2 -10 -6 -43 -10 -73 -17 -143 -22 -176 -46 -310 -19
-107 -73 -406 -86 -470 -3 -19 -7 -172 -9 -340 -3 -336 3 -416 46 -584 39
-156 117 -351 193 -481 101 -174 184 -285 434 -580 108 -127 232 -321 337
-525 133 -260 291 -537 343 -602 253 -313 456 -508 732 -704 256 -182 630
-384 925 -499 153 -59 318 -117 375 -131 8 -2 40 -10 70 -18 30 -8 66 -17 80
-20 14 -2 48 -10 75 -16 64 -15 80 -18 137 -24 26 -3 58 -8 70 -10 45 -10 216
-17 378 -16 165 1 182 2 295 14 79 9 323 61 485 103 63 16 62 16 155 38 39 9
81 19 95 21 14 3 33 7 42 10 23 7 225 6 257 0 14 -3 61 -10 105 -16 45 -6 92
-13 106 -15 14 -2 45 -7 70 -11 25 -3 54 -8 65 -10 11 -1 40 -6 65 -9 25 -4
56 -8 70 -11 90 -15 192 -19 475 -18 293 0 560 8 610 18 11 2 47 7 80 11 68 8
214 40 359 79 337 91 735 259 1048 443 103 60 321 201 358 230 8 7 42 32 75
57 87 66 117 90 129 101 6 6 29 23 51 39 22 17 42 33 45 36 37 43 230 148 332
181 59 19 209 51 293 64 22 3 65 9 95 15 30 5 74 11 97 14 318 40 606 120 841
232 112 54 272 148 323 188 14 12 38 30 53 41 95 68 290 261 374 372 124 164
215 334 316 594 31 79 60 153 65 164 5 11 28 67 52 125 55 134 116 245 236
434 194 304 277 455 341 616 43 110 84 242 96 313 3 15 7 35 10 45 3 9 8 35
11 57 4 22 10 63 15 90 9 51 7 784 -3 820 -3 11 -8 49 -11 85 -7 69 -20 152
-37 235 -8 42 -47 237 -65 325 -33 164 -126 524 -154 595 -4 11 -27 72 -50
135 -57 153 -190 428 -212 438 -5 2 -8 8 -8 14 0 10 -115 183 -138 206 -7 8
-25 30 -40 50 -75 102 -253 283 -373 383 -163 135 -300 228 -514 350 -63 35
-259 132 -380 187 -60 28 -177 83 -260 122 -82 40 -199 96 -260 125 -60 29
-182 87 -270 130 -168 81 -461 215 -470 215 -2 0 -28 11 -57 24 -192 87 -509
171 -716 191 -31 3 -75 8 -97 11 -78 9 -531 11 -615 3 -139 -14 -200 -25 -425
-76 -82 -19 -157 -36 -165 -38 -8 -2 -46 -11 -85 -20 -38 -9 -85 -18 -104 -21
-18 -3 -43 -8 -55 -10 -11 -2 -68 -4 -126 -4 -120 0 -195 16 -460 99 -249 78
-442 125 -605 146 -27 4 -66 9 -85 12 -61 8 -442 10 -510 2z"/>
</g>
</svg>
